# AST/ASF file generated using VICON BodyLanguage
# -----------------------------------------------
:version 1.10
:name VICON
:units
  mass 1.0
  length 0.45
  angle deg
:documentation
   .ast/.asf automatically generated from VICON data using
   VICON BodyBuilder and BodyLanguage model FoxedUp or BRILLIANT.MOD
:root
   order TX TY TZ RX RY RZ
   axis XYZ
   position 0 0 0  
   orientation 0 0 0 
:bonedata
  begin
     id 1 
     name lhipjoint
     direction 0.567725 -0.736092 0.368589 
     length 2.42353 
     axis 0 0 0  XYZ
  end
  begin
     id 2 
     name lfemur
     direction 0.34202 -0.939693 0  
     length 7.24894  
     axis 0 0 20  XYZ
    dof rx ry rz
    limits (-160.0 20.0)
           (-70.0 70.0)
           (-60.0 70.0)
  end
  begin
     id 3 
     name ltibia
     direction 0.34202 -0.939693 0   
     length 7.6997   
     axis 0 0 20   XYZ
    dof rx
    limits (-10.0 170.0)
  end
  begin
     id 4 
     name lfoot
     direction 0.100767 -0.276854 0.955614   
     length 2.37556   
     axis -90 7.62852e-016 20   XYZ
    dof rx rz
    limits (-45.0 90.0)
           (-70.0 20.0)
  end
  begin
     id 5 
     name ltoes
     direction 1.53592e-011 -4.21894e-011 1   
     length 1.18363   
     axis -90 7.62852e-016 20   XYZ
    dof rx
    limits (-90.0 20.0)
  end
  begin
     id 6 
     name rhipjoint
     direction -0.556459 -0.742938 0.372017   
     length 2.4012  
     axis 0 0 0  XYZ 
  end
  begin
     id 7 
     name rfemur
     direction -0.34202 -0.939693 0   
     length 7.5119   
     axis 0 0 -20   XYZ
    dof rx ry rz
    limits (-160.0 20.0)
           (-70.0 70.0)
           (-70.0 60.0)
  end
  begin
     id 8 
     name rtibia
     direction -0.34202 -0.939693 0   
     length 7.50155   
     axis 0 0 -20   XYZ
    dof rx
    limits (-10.0 170.0)
 end
 begin
     id 9 
     name rfoot
     direction -0.118427 -0.325376 0.938139   
     length 2.32487  
     axis -90 -7.62852e-016 -20   XYZ
    dof rx rz
    limits (-45.0 90.0)
           (-20.0 70.0)
  end
  begin
     id 10 
     name rtoes
     direction -1.53525e-011 -4.21868e-011 1   
     length 1.15233   
     axis -90 -7.62852e-016 -20   XYZ
    dof rx
    limits (-90.0 20.0)
  end
  begin
     id 11 
     name lowerback
     direction 0.0287568 0.999577 -0.00434502   
     length 2.15243   
     axis 0 0 0   XYZ
    dof rx ry rz
    limits (-20.0 45.0)
           (-30.0 30.0)
           (-30.0 30.0)
  end
  begin
     id 12 
     name upperback
     direction 0.0294009 0.99956 0.00404628   
     length 2.15427   
     axis 0 0 0   XYZ
    dof rx ry rz
    limits (-20.0 45.0)
           (-30.0 30.0)
           (-30.0 30.0)
  end
  begin
     id 13 
     name thorax
     direction 0.0151014 0.999868 0.0059419   
     length 2.14898   
     axis 0 0 0   XYZ
    dof rx ry rz
    limits (-20.0 45.0)
           (-30.0 30.0)
           (-30.0 30.0)
  end
  begin
     id 14 
     name lowerneck
     direction -0.0249197 0.989906 0.139515   
     length 1.6861   
     axis 0 0 0   XYZ
    dof rx ry rz
    limits (-20.0 45.0)
           (-30.0 30.0)
           (-30.0 30.0)
  end
  begin
     id 15 
     name upperneck
     direction 0.0438463 0.988795 -0.142693   
     length 1.71276   
     axis 0 0 0   XYZ
    dof rx ry rz
    limits (-20.0 45.0)
           (-30.0 30.0)
           (-30.0 30.0)
  end
  begin
     id 16
     name head
     direction 0.0148499 0.997845 -0.0639186  
     length 1.7209  
     axis 0 0 0   XYZ
    dof rx ry rz
    limits (-20.0 45.0)
           (-30.0 30.0)
           (-30.0 30.0)
  end
  begin
     id 17 
     name lclavicle
     direction 0.940298 0.323464 -0.105876  
     length 3.9048  
     axis 0 0 0   XYZ
    dof ry rz
    limits (-20.0 10.0)
           (0.0 20.0)
  end
  begin
     id 18 
     name lhumerus
     direction 1 -4.48954e-011 -4.9675e-028   
     length 4.6851   
     axis 180 -30 -90   XYZ
    dof rx ry rz
    limits (-60.0 90.0)
           (-90.0 90.0)
           (-90.0 90.0)
  end
  begin
     id 19
     name lradius
     direction 1 -4.48992e-011 -1.03359e-026   
     length 3.39626   
     axis 180 -30 -90   XYZ
    dof rx
    limits (-10.0 170.0)
  end
  begin
     id 20
     name lwrist
     direction 1 -4.48906e-011 -1.67336e-026   
     length 1.69813   
     axis 9.90442e-015 90 90   XYZ
    dof ry
    limits (-180.0 0.0)
 end
  begin
     id 21 
     name lhand
     direction 1 -4.49006e-011 -3.34673e-026   
     length 0.486078   
     axis 2.1355e-014 90 90   XYZ
    dof rx rz
    limits (-90.0 90.0)
           (-45.0 45.0)
  end
  begin
     id 22 
     name lfingers
     direction 1 -4.48992e-011 -6.69345e-026   
     length 0.391889   
     axis 4.27099e-014 90 90   XYZ
    dof rx
    limits (0.0 90.0)
  end
  begin
     id 23
     name lthumb
     direction 0.707107 -6.34926e-011 0.707107   
     length 0.562676   
     axis -90 45 2.85299e-015   XYZ
    dof rx rz
    limits (-45.0 45.0)
           (-45.0 45.0)
  end
  begin
     id 24 
     name rclavicle
     direction -0.882459 0.414895 -0.221648   
     length 3.44646  
     axis 0 0 0   XYZ 
    dof ry rz
    limits (-10.0 20.0)
           (-20.0 0.0)
  end
  begin
     id 25 
     name rhumerus
     direction -1 -4.48962e-011 -2.37984e-027  
     length 5.55576   
     axis 180 30 90   XYZ
    dof rx ry rz
    limits (-90.0 60.0)
           (-90.0 90.0)
           (-90.0 90.0)
  end
  begin
     id 26 
     name rradius
     direction -1 -4.48982e-011 -6.86791e-027   
     length 3.32774   
     axis 180 30 90   XYZ
    dof rx
    limits (-10.0 170.0)
  end
  begin
     id 27 
     name rwrist
     direction -1 -4.48961e-011 -1.67336e-026   
     length 1.66387   
     axis 9.90442e-015 -90 -90   XYZ
    dof ry
    limits (-180.0 0.0)
  end
  begin
     id 28
     name rhand
     direction -1 -4.4897e-011 -3.34673e-026   
     length 0.507628   
     axis 2.1355e-014 -90 -90   XYZ
    dof rx rz
    limits (-90.0 90.0)
           (-45.0 45.0)
  end
  begin
     id 29
     name rfingers
     direction -1 -4.48854e-011 -6.69345e-026   
     length 0.409263   
     axis 4.27099e-014 -90 -90   XYZ
    dof rx
    limits (0.0 90.0)
  end
  begin
     id 30
     name rthumb
     direction -0.707107 -6.34913e-011 0.707107   
     length 0.587622   
     axis -90 -45 -2.85299e-015   XYZ
    dof rx rz
    limits (-45.0 45.0)
           (-45.0 45.0)
  end
:hierarchy
  begin
    root lhipjoint rhipjoint lowerback
    lhipjoint lfemur
    lfemur ltibia
    ltibia lfoot
    lfoot ltoes
    rhipjoint rfemur
    rfemur rtibia
    rtibia rfoot
    rfoot rtoes
    lowerback upperback
    upperback thorax
    thorax lowerneck lclavicle rclavicle
    lowerneck upperneck
    upperneck head
    lclavicle lhumerus
    lhumerus lradius
    lradius lwrist
    lwrist lhand lthumb
    lhand lfingers
    rclavicle rhumerus
    rhumerus rradius
    rradius rwrist
    rwrist rhand rthumb
    rhand rfingers
  end

#!OML:ASF E:\motion texture\Top Level 1\Subject 1\Session 1\male.ASF
:FULLY-SPECIFIED
:DEGREES
66
root 42.2847 17.8224 5.93904 151.091 -82.7097 -139.196
lowerback -2.83433 -0.459097 3.78957
upperback -1.82805 -0.791725 3.50005
thorax -0.287985 -0.449175 1.44936
lowerneck -16.7011 -4.72398 -8.0255
upperneck 9.179 -5.63423 8.04709
head 5.95953 -2.42772 3.2967
rclavicle 4.72114e-015 -8.34896e-015
rhumerus -31.8445 3.92454 -82.8538
rradius 32.2596
rwrist 0.74603
rhand -12.0259 -17.022
rfingers 7.12502
rthumb 14.032 -46.5283
lclavicle 4.72114e-015 -8.34896e-015
lhumerus -40.3704 -3.8677 89.6959
lradius 36.6931
lwrist -8.1765
lhand -11.1033 20.7733
lfingers 7.12502
lthumb 14.921 50.2159
rfemur -16.8415 1.98433 26.3075
rtibia 20.3224
rfoot -10.6569 -9.78621
rtoes 14.9658
lfemur -11.5939 -1.98209 -13.7926
ltibia 12.4654
lfoot -10.0381 4.65076
ltoes 3.58194
67
root 42.2782 17.8152 5.9349 151.259 -82.6708 -139.429
lowerback -2.70346 -0.464489 3.76049
upperback -1.81761 -0.789643 3.50087
thorax -0.350109 -0.448125 1.46787
lowerneck -16.7093 -4.68216 -8.00761
upperneck 9.12602 -5.57697 8.03707
head 5.9385 -2.40028 3.29674
rclavicle 2.00773e-014 -9.93923e-015
rhumerus -31.8546 4.13472 -82.9814
rradius 32.4307
rwrist 0.542342
rhand -12.1023 -17.0287
rfingers 7.12502
rthumb 13.9584 -46.5402
lclavicle 2.00773e-014 -9.93923e-015
lhumerus -40.4407 -3.91958 89.6819
lradius 36.66
lwrist -8.1718
lhand -11.0105 20.8658
lfingers 7.12502
lthumb 15.0104 50.3018
rfemur -16.8938 2.02401 26.3455
rtibia 20.605
rfoot -10.8099 -9.85068
rtoes 14.8841
lfemur -11.707 -1.9099 -13.7891
ltibia 12.8761
lfoot -10.2805 4.62363
ltoes 3.50764
68
root 42.2708 17.8078 5.92993 151.374 -82.6272 -139.614
lowerback -2.50706 -0.466293 3.71311
upperback -1.86001 -0.776945 3.52391
thorax -0.502705 -0.44324 1.52099
lowerneck -16.6678 -4.64016 -8.01062
upperneck 9.10944 -5.51677 8.00437
head 5.92046 -2.37453 3.29377
rclavicle -2.6339e-015 5.12864e-014
rhumerus -31.9557 4.38473 -83.0921
rradius 32.5976
rwrist 0.335302
rhand -12.1783 -17.0526
rfingers 7.12502
rthumb 13.8851 -46.569
lclavicle -2.6339e-015 5.12864e-014
lhumerus -40.5966 -3.93666 89.6965
lradius 36.6297
lwrist -8.1903
lhand -10.9392 20.9418
lfingers 7.12502
lthumb 15.0791 50.3726
rfemur -16.9249 2.0522 26.3936
rtibia 20.8707
rfoot -10.9629 -9.90336
rtoes 14.8101
lfemur -11.8299 -1.82866 -13.7747
ltibia 13.3267
lfoot -10.54 4.59555
ltoes 3.45146
69
root 42.2624 17.8004 5.92417 151.429 -82.5813 -139.742
lowerback -2.26469 -0.466773 3.65404
upperback -1.95161 -0.75824 3.56524
thorax -0.731328 -0.436523 1.60062
lowerneck -16.5584 -4.59434 -8.03665
upperneck 9.11894 -5.45034 7.95782
head 5.89923 -2.34878 3.29156
rclavicle 1.73937e-014 -1.27222e-014
rhumerus -32.1442 4.67366 -83.195
rradius 32.7596
rwrist 0.120384
rhand -12.2581 -17.0801
rfingers 7.12502
rthumb 13.8082 -46.6019
lclavicle 1.73937e-014 -1.27222e-014
lhumerus -40.8357 -3.91684 89.7307
lradius 36.6028
lwrist -8.22912
lhand -10.8932 20.991
lfingers 7.12502
lthumb 15.1234 50.4185
rfemur -16.9377 2.06813 26.4515
rtibia 21.1181
rfoot -11.1172 -9.94474
rtoes 14.7419
lfemur -11.9724 -1.732 -13.7505
ltibia 13.8248
lfoot -10.8188 4.55692
ltoes 3.36064
70
root 42.253 17.7928 5.91767 151.447 -82.5323 -139.836
lowerback -2.03392 -0.459649 3.60296
upperback -2.04132 -0.730574 3.60457
thorax -0.951809 -0.425113 1.67372
lowerneck -16.4539 -4.55342 -8.05762
upperneck 9.14249 -5.39096 7.90293
head 5.88342 -2.32666 3.28497
rclavicle -9.93923e-015 2.38542e-015
rhumerus -32.3333 4.95294 -83.3038
rradius 32.9068
rwrist -0.102786
rhand -12.3326 -17.0765
rfingers 7.12502
rthumb 13.7364 -46.6031
lclavicle -9.93923e-015 2.38542e-015
lhumerus -41.0733 -3.89877 89.7617
lradius 36.5794
lwrist -8.27592
lhand -10.8867 21.0108
lfingers 7.12502
lthumb 15.1296 50.4378
rfemur -16.9336 2.07314 26.517
rtibia 21.3493
rfoot -11.2724 -9.96976
rtoes 14.6739
lfemur -12.1396 -1.62011 -13.7188
ltibia 14.3851
lfoot -11.1242 4.50845
ltoes 3.2691
71
root 42.2425 17.7849 5.91034 151.392 -82.4773 -139.858
lowerback -1.91114 -0.448395 3.59316
upperback -2.07158 -0.706832 3.62343
thorax -1.05151 -0.414337 1.70064
lowerneck -16.3415 -4.51139 -8.06739
upperneck 9.11464 -5.33407 7.87133
head 5.85074 -2.30417 3.28381
rclavicle -9.34288e-015 5.1684e-014
rhumerus -32.4368 5.20003 -83.4435
rradius 33.0245
rwrist -0.333722
rhand -12.3996 -17.0557
rfingers 7.12502
rthumb 13.6719 -46.5866
lclavicle -9.34288e-015 5.1684e-014
lhumerus -41.2312 -3.89795 89.7549
lradius 36.5551
lwrist -8.30527
lhand -10.879 21.047
lfingers 7.12502
lthumb 15.137 50.4734
rfemur -16.9166 2.07993 26.5972
rtibia 21.5722
rfoot -11.4311 -9.98861
rtoes 14.6099
lfemur -12.3406 -1.49434 -13.6708
ltibia 15.0255
lfoot -11.4573 4.44983
ltoes 3.21759
72
root 42.2313 17.7767 5.90222 151.238 -82.4221 -139.784
lowerback -1.9111 -0.428537 3.63283
upperback -2.0137 -0.682745 3.6126
thorax -0.992691 -0.401579 1.66693
lowerneck -16.3062 -4.48151 -8.04721
upperneck 9.05247 -5.29611 7.86075
head 5.82132 -2.28692 3.28155
rclavicle -1.48592e-014 6.36111e-015
rhumerus -32.3961 5.37751 -83.6103
rradius 33.1077
rwrist -0.573024
rhand -12.4367 -17.0355
rfingers 7.12502
rthumb 13.6362 -46.5689
lclavicle -1.48592e-014 6.36111e-015
lhumerus -41.2509 -3.94801 89.7059
lradius 36.5296
lwrist -8.30466
lhand -10.8774 21.0908
lfingers 7.12502
lthumb 15.1386 50.5172
rfemur -16.8837 2.07666 26.6905
rtibia 21.7789
rfoot -11.5901 -9.99675
rtoes 14.5377
lfemur -12.5855 -1.35931 -13.6083
ltibia 15.7618
lfoot -11.8249 4.37232
ltoes 3.16006
73
root 42.2194 17.7679 5.89332 150.96 -82.3672 -139.587
lowerback -2.01215 -0.402092 3.71774
upperback -1.88558 -0.659346 3.57974
thorax -0.805723 -0.38763 1.5835
lowerneck -16.3199 -4.46273 -7.99463
upperneck 8.95355 -5.27456 7.84644
head 5.78874 -2.27601 3.27046
rclavicle -1.2921e-015 1.94809e-014
rhumerus -32.2415 5.5041 -83.7994
rradius 33.1661
rwrist -0.829568
rhand -12.4464 -17.0533
rfingers 7.12502
rthumb 13.6268 -46.5872
lclavicle -1.2921e-015 1.94809e-014
lhumerus -41.1669 -4.04134 89.6249
lradius 36.5125
lwrist -8.27769
lhand -10.8893 21.1275
lfingers 7.12502
lthumb 15.1271 50.5547
rfemur -16.8369 2.06916 26.8004
rtibia 21.9712
rfoot -11.75 -9.99956
rtoes 14.4417
lfemur -12.8866 -1.2132 -13.5288
ltibia 16.6089
lfoot -12.2121 4.28367
ltoes 3.09549
74
root 42.2071 17.7585 5.88359 150.533 -82.3121 -139.245
lowerback -2.17815 -0.377653 3.83436
upperback -1.72266 -0.645148 3.54219
thorax -0.546975 -0.377265 1.47673
lowerneck -16.3243 -4.44355 -7.9459
upperneck 8.82723 -5.25291 7.84603
head 5.74654 -2.26463 3.26455
rclavicle 2.46493e-014 -4.37326e-014
rhumerus -32.0318 5.62491 -84.005
rradius 33.2077
rwrist -1.11149
rhand -12.4274 -17.0702
rfingers 7.12502
rthumb 13.6451 -46.603
lclavicle 2.46493e-014 -4.37326e-014
lhumerus -41.0446 -4.14257 89.5285
lradius 36.5125
lwrist -8.22679
lhand -10.9051 21.1767
lfingers 7.12502
lthumb 15.1119 50.605
rfemur -16.7763 2.05827 26.9304
rtibia 22.1486
rfoot -11.9078 -9.99616
rtoes 14.3339
lfemur -13.2515 -1.05772 -13.4291
ltibia 17.5801
lfoot -12.6204 4.18303
ltoes 2.99525
